<svg width="60" height="60" viewBox="0 0 60 60" fill="none" xmlns="http://www.w3.org/2000/svg">
<path d="M50.6774 50.4961H36.6046V48.9371H49.1184V36.6698H50.6774V50.4961Z" fill="black"/>
<path d="M22.8671 50.4961H8.79436V36.6698H10.3533V48.9371H22.8671V50.4961Z" fill="black"/>
<path d="M50.6774 22.4396H49.1184V10.1725H36.6046V8.61358H50.6774V22.4396Z" fill="black"/>
<path d="M10.3533 22.4396H8.79436V8.61358H22.8671V10.1725H10.3533V22.4396Z" fill="black"/>
<path d="M28.0141 18.3242V27.1344H19.2041V18.3242H28.0141ZM29.573 16.7652H17.6452V28.6933H29.573V16.7652Z" fill="black"/>
<path d="M41.3958 31.8529V40.6631H32.5858V31.8529H41.3958ZM42.9547 30.2939H31.0269V42.2221H42.9547V30.2939Z" fill="black"/>
<path d="M41.59 16.8471H42.881V28.6853H41.59V16.8471Z" fill="black"/>
<path d="M31.1088 16.8473H35.8144V21.553H31.1088V16.8473Z" fill="black"/>
<path d="M31.1088 23.8316H35.8144V28.5372H31.1088V23.8316Z" fill="black"/>
<path d="M28.1759 30.4248H29.5483V42.2629H28.1759V30.4248Z" fill="black"/>
<path d="M17.6706 30.4254H22.3763V35.1311H17.6706V30.4254Z" fill="black"/>
<path d="M17.6706 37.4097H22.3763V42.1153H17.6706V37.4097Z" fill="black"/>
</svg>
