<svg width="288" height="288" viewBox="0 0 288 288" fill="none" xmlns="http://www.w3.org/2000/svg">
<path d="M144 0.850708C141.658 0.850708 139.316 0.908 136.976 1.02258C134.635 1.13717 132.3 1.31078 129.969 1.53994C127.637 1.76911 125.313 2.05557 122.995 2.39932C120.679 2.74307 118.37 3.14411 116.073 3.60071C113.774 4.05731 111.49 4.57119 109.217 5.14064C106.944 5.71008 104.688 6.33335 102.446 7.0139C100.203 7.69446 97.9809 8.42883 95.7743 9.21876C93.5677 10.007 91.3837 10.8507 89.2188 11.7465C87.0538 12.6441 84.9132 13.592 82.7952 14.5938C80.6771 15.5955 78.5851 16.6493 76.5191 17.7535C74.4531 18.8577 72.4149 20.0122 70.4063 21.217C68.3976 22.4202 66.4184 23.6736 64.4705 24.9757C62.5226 26.2761 60.6076 27.625 58.7257 29.0209C56.8438 30.4167 54.9983 31.8577 53.1875 33.3438C51.375 34.8299 49.6024 36.3594 47.8663 37.9323C46.1302 39.507 44.434 41.1215 42.7778 42.7778C41.1215 44.434 39.5069 46.1302 37.9323 47.8663C36.3594 49.6025 34.8299 51.375 33.3438 53.1875C31.8576 54.9983 30.4167 56.8438 29.0208 58.7257C27.625 60.6077 26.2778 62.5226 24.9757 64.4705C23.6736 66.4184 22.4201 68.3976 21.217 70.4063C20.0122 72.415 18.8576 74.4531 17.7535 76.5191C16.6493 78.5851 15.5955 80.6771 14.5938 82.7952C13.592 84.9132 12.6441 87.0538 11.7465 89.2188C10.8507 91.3837 10.0069 93.5677 9.21875 95.7743C8.42882 97.9809 7.69444 100.203 7.01389 102.446C6.33333 104.688 5.71007 106.944 5.14062 109.217C4.57118 111.49 4.05729 113.774 3.60069 116.073C3.1441 118.37 2.74305 120.679 2.3993 122.995C2.05555 125.313 1.7691 127.637 1.53993 129.969C1.31076 132.3 1.13715 134.635 1.02257 136.976C0.907985 139.316 0.850693 141.658 0.850693 144C0.850693 146.342 0.907985 148.684 1.02257 151.024C1.13715 153.365 1.31076 155.7 1.53993 158.031C1.7691 160.363 2.05555 162.688 2.3993 165.005C2.74305 167.321 3.1441 169.63 3.60069 171.927C4.05729 174.224 4.57118 176.51 5.14062 178.783C5.71007 181.056 6.33333 183.313 7.01389 185.554C7.69444 187.795 8.42882 190.019 9.21875 192.226C10.0069 194.432 10.8507 196.616 11.7465 198.781C12.6441 200.946 13.592 203.087 14.5938 205.205C15.5955 207.323 16.6493 209.415 17.7535 211.481C18.8576 213.547 20.0122 215.583 21.217 217.594C22.4201 219.602 23.6736 221.582 24.9757 223.53C26.2778 225.477 27.625 227.392 29.0208 229.274C30.4167 231.156 31.8576 233.002 33.3438 234.813C34.8299 236.625 36.3594 238.398 37.9323 240.134C39.5069 241.87 41.1215 243.566 42.7778 245.222C44.434 246.879 46.1302 248.493 47.8663 250.068C49.6024 251.641 51.375 253.17 53.1875 254.656C54.9983 256.142 56.8438 257.583 58.7257 258.979C60.6076 260.375 62.5226 261.722 64.4705 263.024C66.4184 264.326 68.3976 265.58 70.4063 266.783C72.4149 267.988 74.4531 269.142 76.5191 270.247C78.5851 271.351 80.6771 272.405 82.7952 273.406C84.9132 274.408 87.0538 275.356 89.2188 276.254C91.3837 277.149 93.5677 277.993 95.7743 278.781C97.9809 279.571 100.203 280.306 102.446 280.986C104.688 281.665 106.944 282.29 109.217 282.859C111.49 283.429 113.774 283.943 116.073 284.399C118.37 284.856 120.679 285.257 122.995 285.601C125.313 285.944 127.637 286.231 129.969 286.46C132.3 286.689 134.635 286.863 136.976 286.977C139.316 287.092 141.658 287.149 144 287.149C146.342 287.149 148.684 287.092 151.024 286.977C153.365 286.863 155.7 286.689 158.031 286.46C160.363 286.231 162.688 285.944 165.005 285.601C167.321 285.257 169.63 284.856 171.927 284.399C174.226 283.943 176.51 283.429 178.783 282.859C181.056 282.29 183.313 281.665 185.554 280.986C187.795 280.306 190.019 279.571 192.226 278.781C194.432 277.993 196.616 277.149 198.781 276.254C200.946 275.356 203.087 274.408 205.205 273.406C207.323 272.405 209.415 271.351 211.481 270.247C213.547 269.142 215.583 267.988 217.594 266.783C219.602 265.58 221.582 264.326 223.53 263.024C225.477 261.722 227.392 260.375 229.274 258.979C231.156 257.583 233.002 256.142 234.813 254.656C236.625 253.17 238.398 251.641 240.134 250.068C241.87 248.493 243.566 246.879 245.222 245.222C246.879 243.566 248.493 241.87 250.068 240.134C251.641 238.398 253.17 236.625 254.656 234.813C256.142 233.002 257.583 231.156 258.979 229.274C260.375 227.392 261.722 225.477 263.024 223.53C264.326 221.582 265.58 219.602 266.783 217.594C267.988 215.583 269.142 213.547 270.247 211.481C271.351 209.415 272.405 207.323 273.406 205.205C274.408 203.087 275.356 200.946 276.253 198.781C277.149 196.616 277.993 194.432 278.781 192.226C279.571 190.019 280.306 187.795 280.986 185.554C281.665 183.313 282.29 181.056 282.859 178.783C283.429 176.51 283.943 174.224 284.399 171.927C284.856 169.63 285.257 167.321 285.601 165.005C285.944 162.688 286.231 160.363 286.46 158.031C286.689 155.7 286.863 153.365 286.977 151.024C287.092 148.684 287.149 146.342 287.149 144C287.149 141.658 287.092 139.316 286.977 136.976C286.863 134.635 286.689 132.3 286.46 129.969C286.231 127.637 285.944 125.313 285.601 122.995C285.257 120.679 284.856 118.37 284.399 116.073C283.943 113.774 283.429 111.49 282.859 109.217C282.29 106.944 281.665 104.688 280.986 102.446C280.306 100.203 279.571 97.9809 278.781 95.7743C277.993 93.5677 277.149 91.3837 276.253 89.2188C275.356 87.0538 274.408 84.9132 273.406 82.7952C272.405 80.6771 271.351 78.5851 270.247 76.5191C269.142 74.4531 267.988 72.415 266.783 70.4063C265.58 68.3976 264.326 66.4184 263.024 64.4705C261.722 62.5226 260.375 60.6077 258.979 58.7257C257.583 56.8438 256.142 54.9983 254.656 53.1875C253.17 51.375 251.641 49.6025 250.068 47.8663C248.493 46.1302 246.879 44.434 245.222 42.7778C243.566 41.1215 241.87 39.507 240.134 37.9323C238.398 36.3594 236.625 34.8299 234.813 33.3438C233.002 31.8577 231.156 30.4167 229.274 29.0209C227.392 27.625 225.477 26.2761 223.53 24.9757C221.582 23.6736 219.602 22.4202 217.594 21.217C215.583 20.0122 213.547 18.8577 211.481 17.7535C209.415 16.6493 207.323 15.5955 205.205 14.5938C203.087 13.592 200.946 12.6441 198.781 11.7465C196.616 10.8507 194.432 10.007 192.226 9.21876C190.019 8.42883 187.795 7.69446 185.554 7.0139C183.313 6.33335 181.056 5.71008 178.783 5.14064C176.51 4.57119 174.226 4.05731 171.927 3.60071C169.63 3.14411 167.321 2.74307 165.005 2.39932C162.688 2.05557 160.363 1.76911 158.031 1.53994C155.7 1.31078 153.365 1.13717 151.024 1.02258C148.684 0.908 146.342 0.850708 144 0.850708Z" fill="#FBBE28"/>
<path d="M144 6.5C141.75 6.5 139.5 6.55556 137.253 6.66493C135.005 6.77604 132.762 6.94097 130.523 7.16146C128.283 7.38194 126.05 7.65799 123.825 7.98785C121.599 8.31771 119.382 8.70313 117.175 9.14236C114.969 9.5816 112.773 10.0747 110.59 10.6215C108.408 11.1667 106.24 11.7674 104.085 12.4201C101.932 13.0747 99.7969 13.7795 97.6771 14.5382C95.559 15.2951 93.4601 16.1059 91.3802 16.967C89.3021 17.8281 87.2448 18.7396 85.2118 19.7014C83.1771 20.6632 81.1667 21.6753 79.1823 22.7361C77.1979 23.7969 75.2413 24.9062 73.3108 26.0625C71.3802 27.2188 69.4809 28.4219 67.6094 29.6736C65.7378 30.9236 63.8993 32.2188 62.092 33.559C60.2847 34.8993 58.5104 36.283 56.7708 37.7118C55.0312 39.1389 53.3281 40.6076 51.6615 42.1198C49.9931 43.6302 48.3646 45.1823 46.7726 46.7726C45.1823 48.3646 43.6302 49.9931 42.1198 51.6615C40.6076 53.3281 39.1389 55.0312 37.7118 56.7708C36.283 58.5104 34.8993 60.2847 33.559 62.092C32.2188 63.8993 30.9236 65.7378 29.6736 67.6094C28.4219 69.4809 27.2188 71.3802 26.0625 73.3108C24.9062 75.2413 23.7969 77.1979 22.7361 79.1823C21.6753 81.1667 20.6632 83.1771 19.7014 85.2118C18.7396 87.2448 17.8281 89.3021 16.967 91.3802C16.1059 93.4601 15.2951 95.559 14.5382 97.6771C13.7795 99.7969 13.0747 101.932 12.4201 104.085C11.7674 106.24 11.1667 108.408 10.6215 110.59C10.0747 112.773 9.5816 114.969 9.14236 117.175C8.70313 119.382 8.31771 121.599 7.98785 123.825C7.65799 126.05 7.38194 128.283 7.16146 130.523C6.94097 132.762 6.77604 135.005 6.66493 137.253C6.55556 139.5 6.5 141.75 6.5 144C6.5 146.25 6.55556 148.5 6.66493 150.747C6.77604 152.995 6.94097 155.238 7.16146 157.477C7.38194 159.717 7.65799 161.95 7.98785 164.175C8.31771 166.401 8.70313 168.618 9.14236 170.825C9.5816 173.031 10.0747 175.227 10.6215 177.41C11.1667 179.592 11.7674 181.76 12.4201 183.915C13.0747 186.068 13.7795 188.203 14.5382 190.323C15.2951 192.441 16.1059 194.54 16.967 196.618C17.8281 198.698 18.7396 200.755 19.7014 202.788C20.6632 204.823 21.6753 206.832 22.7361 208.818C23.7969 210.802 24.9062 212.759 26.0625 214.689C27.2188 216.62 28.4219 218.519 29.6736 220.391C30.9236 222.262 32.2188 224.101 33.559 225.908C34.8993 227.715 36.283 229.49 37.7118 231.229C39.1389 232.969 40.6076 234.672 42.1198 236.339C43.6302 238.007 45.1823 239.635 46.7726 241.227C48.3646 242.818 49.9931 244.37 51.6615 245.88C53.3281 247.392 55.0312 248.861 56.7708 250.288C58.5104 251.717 60.2847 253.101 62.092 254.441C63.8993 255.781 65.7378 257.076 67.6094 258.326C69.4809 259.576 71.3802 260.781 73.3108 261.938C75.2413 263.094 77.1979 264.203 79.1823 265.264C81.1667 266.325 83.1771 267.337 85.2118 268.299C87.2448 269.26 89.3021 270.172 91.3802 271.033C93.4601 271.894 95.559 272.705 97.6771 273.462C99.7969 274.22 101.932 274.925 104.085 275.58C106.24 276.233 108.408 276.832 110.59 277.378C112.773 277.925 114.969 278.418 117.175 278.858C119.382 279.297 121.599 279.682 123.825 280.012C126.05 280.342 128.283 280.618 130.523 280.839C132.762 281.059 135.005 281.224 137.253 281.335C139.5 281.444 141.75 281.5 144 281.5C146.25 281.5 148.5 281.444 150.747 281.335C152.995 281.224 155.238 281.059 157.477 280.839C159.717 280.618 161.95 280.342 164.175 280.012C166.401 279.682 168.618 279.297 170.825 278.858C173.031 278.418 175.227 277.925 177.41 277.378C179.592 276.832 181.76 276.233 183.915 275.58C186.068 274.925 188.203 274.22 190.323 273.462C192.441 272.705 194.54 271.894 196.62 271.033C198.698 270.172 200.755 269.26 202.788 268.299C204.823 267.337 206.832 266.325 208.818 265.264C210.802 264.203 212.759 263.094 214.689 261.938C216.62 260.781 218.519 259.576 220.391 258.326C222.262 257.076 224.101 255.781 225.908 254.441C227.715 253.101 229.49 251.717 231.229 250.288C232.969 248.861 234.672 247.392 236.339 245.88C238.007 244.37 239.635 242.818 241.227 241.227C242.818 239.635 244.37 238.007 245.88 236.339C247.392 234.672 248.861 232.969 250.288 231.229C251.717 229.49 253.101 227.715 254.441 225.908C255.781 224.101 257.076 222.262 258.326 220.391C259.576 218.519 260.781 216.62 261.938 214.689C263.094 212.759 264.203 210.802 265.264 208.818C266.325 206.832 267.337 204.823 268.299 202.788C269.26 200.755 270.172 198.698 271.033 196.618C271.894 194.54 272.705 192.441 273.462 190.323C274.22 188.203 274.925 186.068 275.58 183.915C276.233 181.76 276.832 179.592 277.378 177.41C277.925 175.227 278.418 173.031 278.858 170.825C279.297 168.618 279.682 166.401 280.012 164.175C280.342 161.95 280.618 159.717 280.839 157.477C281.059 155.238 281.224 152.995 281.335 150.747C281.444 148.5 281.5 146.25 281.5 144C281.5 141.75 281.444 139.5 281.335 137.253C281.224 135.005 281.059 132.762 280.839 130.523C280.618 128.283 280.342 126.05 280.012 123.825C279.682 121.599 279.297 119.382 278.858 117.175C278.418 114.969 277.925 112.773 277.378 110.59C276.832 108.408 276.233 106.24 275.58 104.085C274.925 101.932 274.22 99.7969 273.462 97.6771C272.705 95.559 271.894 93.4601 271.033 91.3802C270.172 89.3021 269.26 87.2448 268.299 85.2118C267.337 83.1771 266.325 81.1667 265.264 79.1823C264.203 77.1979 263.094 75.2413 261.938 73.3108C260.781 71.3802 259.576 69.4809 258.326 67.6094C257.076 65.7378 255.781 63.8993 254.441 62.092C253.101 60.2847 251.717 58.5104 250.288 56.7708C248.861 55.0312 247.392 53.3281 245.88 51.6615C244.37 49.9931 242.818 48.3646 241.227 46.7726C239.635 45.1823 238.007 43.6302 236.339 42.1198C234.672 40.6076 232.969 39.1389 231.229 37.7118C229.49 36.283 227.715 34.8993 225.908 33.559C224.101 32.2188 222.262 30.9236 220.391 29.6736C218.519 28.4219 216.62 27.2188 214.689 26.0625C212.759 24.9062 210.802 23.7969 208.818 22.7361C206.832 21.6753 204.823 20.6632 202.788 19.7014C200.755 18.7396 198.698 17.8281 196.62 16.967C194.54 16.1059 192.441 15.2951 190.323 14.5382C188.203 13.7795 186.068 13.0747 183.915 12.4201C181.76 11.7674 179.592 11.1667 177.41 10.6215C175.227 10.0747 173.031 9.5816 170.825 9.14236C168.618 8.70313 166.401 8.31771 164.175 7.98785C161.95 7.65799 159.717 7.38194 157.477 7.16146C155.238 6.94097 152.995 6.77604 150.747 6.66493C148.5 6.55556 146.25 6.5 144 6.5Z" fill="#FEFCE6"/>
<path d="M224.592 143.927C224.592 188.476 188.476 224.592 143.927 224.592C99.375 224.592 63.2587 188.476 63.2587 143.927C63.2587 99.375 99.375 63.2587 143.927 63.2587C188.476 63.2587 224.592 99.375 224.592 143.927Z" fill="#FBBE28"/>
<path d="M177.609 143.408C177.609 150.11 177.609 156.71 177.609 164.964C177.609 182.164 171.112 196.269 147.757 197.637" stroke="white" stroke-width="5.68964" stroke-miterlimit="10" stroke-linecap="round" stroke-linejoin="round"/>
<path d="M140.128 197.665C120.073 196.759 110.239 188.394 110.239 170.794C110.239 168.302 110.239 167.611 110.239 164.964" stroke="white" stroke-width="5.68964" stroke-miterlimit="10" stroke-linecap="round" stroke-linejoin="round"/>
<path d="M123.541 141.96V101.848C123.541 98.7314 126.711 96.2036 130.625 96.2036C134.541 96.2036 137.713 98.7314 137.713 101.848V141.96" stroke="white" stroke-width="5.68964" stroke-miterlimit="10" stroke-linecap="round" stroke-linejoin="round"/>
<path d="M137.713 135.945V95.8286C137.713 92.7158 140.691 90.188 144.362 90.188C148.034 90.188 151.013 92.7158 151.013 95.8286V135.945" stroke="white" stroke-width="5.68964" stroke-miterlimit="10" stroke-linecap="round" stroke-linejoin="round"/>
<path d="M151.013 141.96V101.848C151.013 98.7314 153.989 96.2036 157.661 96.2036C161.333 96.2036 164.312 98.7314 164.312 101.848V141.96" stroke="white" stroke-width="5.68964" stroke-miterlimit="10" stroke-linecap="round" stroke-linejoin="round"/>
<path d="M164.312 141.96V112.127C164.312 109.011 167.288 106.485 170.96 106.485C174.632 106.485 177.609 109.011 177.609 112.127V152.242" stroke="white" stroke-width="5.68964" stroke-miterlimit="10" stroke-linecap="round" stroke-linejoin="round"/>
<path d="M110.239 171.67V131.558C110.239 128.441 110.189 125.915 113.218 125.915C113.218 125.915 123.541 129.174 123.541 140.332V150.068" stroke="white" stroke-width="5.68964" stroke-miterlimit="10" stroke-linecap="round" stroke-linejoin="round"/>
<path d="M147.732 197.656C154.095 192.655 163.376 178.478 164.507 171.99C165.581 165.839 163.076 157.563 154.616 157.533C148.791 157.519 143.883 164.519 143.866 164.547C142.336 162.162 139.059 157.519 133.234 157.533C124.776 157.563 122.269 165.839 123.343 171.99C124.474 178.478 133.755 192.655 140.121 197.656" stroke="white" stroke-width="5.68964" stroke-miterlimit="10" stroke-linecap="round" stroke-linejoin="round"/>
<path d="M146.26 168.419C146.26 166.681 145.215 164.547 143.927 164.547C142.637 164.547 141.59 166.681 141.59 168.419C141.59 170.157 142.637 170.936 143.927 170.936C145.215 170.936 146.26 170.157 146.26 168.419Z" stroke="white" stroke-width="5.68964" stroke-miterlimit="10" stroke-linecap="round" stroke-linejoin="round"/>
</svg>
