<svg width="100" height="100" viewBox="0 0 100 100" fill="none" xmlns="http://www.w3.org/2000/svg">
<g filter="url(#filter0_d)">
<path d="M46.8051 66.485C46.8051 72.4471 49.1735 78.1649 53.3893 82.3808C57.6051 86.5966 63.323 88.965 69.2851 88.965C75.2471 88.965 80.965 86.5966 85.1808 82.3808C89.3966 78.1649 91.7651 72.4471 91.7651 66.485C91.7651 60.5229 89.3966 54.8051 85.1808 50.5892C80.965 46.3734 75.2471 44.005 69.2851 44.005C63.323 44.005 57.6051 46.3734 53.3893 50.5892C49.1735 54.8051 46.8051 60.5229 46.8051 66.485Z" fill="#FFE048"/>
<path d="M26.12 83.665C25.3931 83.6642 24.6805 83.4635 24.06 83.085C22.855 82.36 22.13 81.085 22.125 79.675L22.105 74.605C22.105 74.105 21.78 73.665 21.345 73.565C15.9 72.285 12.095 67.48 12.095 61.88V28.905C12.095 22.29 17.48 16.905 24.095 16.905H76.42C83.035 16.905 88.42 22.29 88.42 28.905V61.885C88.42 68.5 83.035 73.885 76.42 73.885H46.05C45.89 73.885 45.73 73.925 45.585 74L27.97 83.21C27.385 83.515 26.75 83.665 26.12 83.665ZM24.085 20.905C19.675 20.905 16.085 24.495 16.085 28.905V61.885C16.085 65.62 18.62 68.825 22.25 69.675C24.505 70.205 26.085 72.225 26.1 74.595L26.12 79.665L43.735 70.455C44.445 70.085 45.25 69.885 46.05 69.885H76.41C80.82 69.885 84.41 66.295 84.41 61.885V28.905C84.41 24.495 80.82 20.905 76.41 20.905H24.085Z" fill="#55524F"/>
<path d="M69.785 38.995H29.71C28.605 38.995 27.71 38.1 27.71 36.995C27.71 35.89 28.605 34.995 29.71 34.995H69.79C70.0526 34.9953 70.3126 35.0474 70.5551 35.1482C70.7977 35.249 71.018 35.3966 71.2034 35.5826C71.3889 35.7685 71.536 35.9892 71.6362 36.2319C71.7364 36.4747 71.7878 36.7349 71.7875 36.9975C71.7871 37.2601 71.7351 37.5201 71.6343 37.7627C71.5335 38.0052 71.3859 38.2255 71.1999 38.411C71.014 38.5965 70.7933 38.7435 70.5505 38.8437C70.3077 38.9439 70.0476 38.9953 69.785 38.995ZM54.475 56.26H29.71C28.605 56.26 27.71 55.365 27.71 54.26C27.71 53.155 28.605 52.26 29.71 52.26H54.475C55.58 52.26 56.475 53.155 56.475 54.26C56.475 55.365 55.575 56.26 54.475 56.26Z" fill="#55524F"/>
</g>
<defs>
<filter id="filter0_d" x="-4" y="0" width="108" height="108" filterUnits="userSpaceOnUse" color-interpolation-filters="sRGB">
<feFlood flood-opacity="0" result="BackgroundImageFix"/>
<feColorMatrix in="SourceAlpha" type="matrix" values="0 0 0 0 0 0 0 0 0 0 0 0 0 0 0 0 0 0 127 0"/>
<feOffset dy="4"/>
<feGaussianBlur stdDeviation="2"/>
<feColorMatrix type="matrix" values="0 0 0 0 0 0 0 0 0 0 0 0 0 0 0 0 0 0 0.25 0"/>
<feBlend mode="normal" in2="BackgroundImageFix" result="effect1_dropShadow"/>
<feBlend mode="normal" in="SourceGraphic" in2="effect1_dropShadow" result="shape"/>
</filter>
</defs>
</svg>
