<svg width="60" height="60" viewBox="0 0 60 60" fill="none" xmlns="http://www.w3.org/2000/svg">
<path d="M22.5 57.8182L21.4091 57.4091C19.6364 56.8636 17.8636 56.1818 16.2273 55.2273L15.1364 54.6818L15.4091 53.5909C16.0909 51 15.4091 48.1364 13.5 46.0909C11.5909 44.1818 8.72727 43.3636 6 44.1818L4.90909 44.4545L4.36364 43.3636C3.40909 41.7273 2.72727 39.9545 2.18182 38.1818L1.77273 37.0909L2.86364 36.5455C5.31818 35.1818 6.81818 32.5909 6.81818 29.8636C6.81818 27 5.31818 24.5455 2.86364 23.1818L1.77273 22.6364L2.18182 21.5455C2.72727 19.7727 3.40909 18 4.36364 16.3636L4.90909 15.2727L6 15.5455C6.68182 15.6818 7.36364 15.8182 8.04546 15.8182C10.0909 15.8182 12 15 13.3636 13.6364C15.2727 11.7273 16.0909 8.86364 15.2727 6.13637L15 4.90909L16.0909 4.36364C17.7273 3.40909 19.5 2.72727 21.2727 2.18182L22.3636 1.77273L23.1818 2.86364C24.5455 5.31818 27 6.81818 29.8636 6.81818C32.7273 6.81818 35.1818 5.31818 36.5455 2.86364L37.0909 1.77273L38.1818 2.04546C39.9545 2.59091 41.7273 3.27273 43.3636 4.22727L44.4545 4.77273L44.1818 5.86364C43.5 8.45455 44.1818 11.3182 46.0909 13.3636C48 15.2727 50.8636 16.0909 53.5909 15.2727L54.6818 15L55.2273 16.0909C56.1818 17.7273 56.8636 19.5 57.4091 21.2727L57.8182 22.3636L56.7273 23.1818C54.2727 24.5455 52.7727 27.1364 52.7727 29.8636C52.7727 30.6818 52.0909 31.3636 51.2727 31.3636C50.4545 31.3636 49.7727 30.6818 49.7727 29.8636C49.7727 26.4545 51.4091 23.1818 54.1364 21.2727C53.8636 20.4545 53.4545 19.5 53.0455 18.6818C49.7727 19.2273 46.2273 18.1364 43.9091 15.6818C41.4545 13.2273 40.3636 9.81818 40.9091 6.54546C40.0909 6.13637 39.1364 5.72727 38.3182 5.45455C36.2727 8.18182 33.1364 9.81818 29.7273 9.81818C26.3182 9.81818 23.0455 8.18182 21.1364 5.45455C20.3182 5.72727 19.3636 6.13637 18.5455 6.54546C19.0909 9.81818 18 13.3636 15.5455 15.6818C13.6364 17.5909 10.9091 18.6818 8.04546 18.6818C7.5 18.6818 6.95455 18.6818 6.40909 18.5455C6 19.3636 5.59091 20.3182 5.31818 21.1364C8.04545 23.1818 9.68182 26.3182 9.68182 29.7273C9.68182 33.1364 8.04545 36.4091 5.31818 38.3182C5.59091 39.1364 6 40.0909 6.40909 40.9091C9.68182 40.3636 13.2273 41.4545 15.5455 43.9091C18 46.3636 19.0909 49.7727 18.5455 53.0455C19.3636 53.4545 20.3182 53.8636 21.1364 54.1364C23.1818 51.4091 26.3182 49.7727 29.7273 49.7727C30.5455 49.7727 31.2273 50.4545 31.2273 51.2727C31.2273 52.0909 30.5455 52.7727 29.7273 52.7727C26.8636 52.7727 24.4091 54.2727 23.0455 56.7273L22.5 57.8182Z" fill="#107869"/>
<path d="M38.3182 36.8182H53.8636C54.6818 36.8182 55.2273 37.5 55.2273 38.1818C55.2273 39 54.5455 39.5455 53.8636 39.5455H38.3182C37.5 39.5455 36.9546 38.8636 36.9546 38.1818C36.8182 37.5 37.5 36.8182 38.3182 36.8182ZM38.3182 43.9091H53.8636C54.6818 43.9091 55.2273 44.5909 55.2273 45.2727C55.2273 46.0909 54.5455 46.6364 53.8636 46.6364H38.3182C37.5 46.6364 36.9546 45.9545 36.9546 45.2727C36.8182 44.5909 37.5 43.9091 38.3182 43.9091ZM38.3182 51H53.8636C54.6818 51 55.2273 51.6818 55.2273 52.3636C55.2273 53.1818 54.5455 53.7273 53.8636 53.7273H38.3182C37.5 53.7273 36.9546 53.0455 36.9546 52.3636C36.8182 51.6818 37.5 51 38.3182 51Z" fill="#107869"/>
<path d="M31.2273 39.8182C25.7727 39.8182 21.2727 35.3182 21.2727 29.8636C21.2727 24.4091 25.7727 19.9091 31.2273 19.9091C36.6818 19.9091 41.1818 24.4091 41.1818 29.8636C41.1818 30.5454 41.1818 31.2273 41.0455 31.9091C40.9091 32.7273 40.0909 33.2727 39.2727 33.1364C38.4546 33 37.9091 32.1818 38.0455 31.3636C38.1818 30.9545 38.1818 30.4091 38.1818 30C38.1818 26.1818 35.0455 23.0454 31.2273 23.0454C27.4091 23.0454 24.2727 26.1818 24.2727 30C24.2727 33.8182 27.4091 36.9545 31.2273 36.9545C32.0455 36.9545 32.7273 37.6364 32.7273 38.4545C32.7273 39.1364 32.0455 39.8182 31.2273 39.8182Z" fill="#107869"/>
</svg>
