<svg width="200" height="200" viewBox="0 0 200 200" fill="none" xmlns="http://www.w3.org/2000/svg">
<path d="M99.7333 164.133C64.2667 164.133 35.4667 135.333 35.4667 99.8666C35.4667 64.4 64.2667 35.6 99.7333 35.6C114.133 35.6 127.733 40.2666 139.067 49.0666C140.8 50.4 141.2 52.9333 139.733 54.6666C138.4 56.4 135.867 56.8 134.133 55.3333C124.267 47.6 112.267 43.6 99.7333 43.6C68.6667 43.6 43.4667 68.8 43.4667 99.8666C43.4667 130.933 68.6667 156.133 99.7333 156.133C130.8 156.133 156 130.8 156 99.8666C156 95.4666 155.467 90.9333 154.4 86.6666C153.867 84.5333 155.2 82.4 157.333 81.8666C159.467 81.3333 161.6 82.6666 162.133 84.8C163.333 89.7333 163.867 94.8 163.867 99.8666C164 135.333 135.2 164.133 99.7333 164.133Z" fill="#4D4D4D"/>
<path d="M55.0667 99.8666C55.0667 111.713 59.7726 123.074 68.1492 131.451C76.5258 139.827 87.887 144.533 99.7333 144.533C111.58 144.533 122.941 139.827 131.317 131.451C139.694 123.074 144.4 111.713 144.4 99.8666C144.4 88.0203 139.694 76.6591 131.317 68.2825C122.941 59.9059 111.58 55.2 99.7333 55.2C87.887 55.2 76.5258 59.9059 68.1492 68.2825C59.7726 76.6591 55.0667 88.0203 55.0667 99.8666Z" fill="#5BE818"/>
<path d="M94.5333 127.333C93.4666 127.333 92.5333 126.933 91.7333 126.133L64.4 98.8C62.8 97.2 62.8 94.6666 64.4 93.0666C66 91.4666 68.5333 91.4666 70.1333 93.0666L94.6666 117.6L152.933 59.3333C154.533 57.7333 157.067 57.7333 158.667 59.3333C160.267 60.9333 160.267 63.4666 158.667 65.0666L97.4666 126.267C96.6666 126.933 95.6 127.333 94.5333 127.333Z" fill="#4D4D4D"/>
</svg>
