<svg width="60" height="60" viewBox="0 0 60 60" fill="none" xmlns="http://www.w3.org/2000/svg">
<path d="M22.4535 33.7604C19.7267 33.7614 17.0609 32.9537 14.7933 31.4394C12.5256 29.9251 10.758 27.7723 9.71407 25.2533C8.67011 22.7344 8.39669 19.9623 8.92841 17.2879C9.46012 14.6135 10.7731 12.1569 12.7012 10.2288C14.6293 8.30066 17.0859 6.98771 19.7603 6.45599C22.4347 5.92428 25.2068 6.1977 27.7258 7.24165C30.2448 8.28561 32.3976 10.0532 33.9118 12.3208C35.4261 14.5885 36.2338 17.2543 36.2328 19.981C36.2314 23.6351 34.7792 27.1391 32.1954 29.723C29.6116 32.3068 26.1075 33.759 22.4535 33.7604ZM22.4535 30.1655C25.1155 30.1055 27.6483 29.0059 29.5098 27.102C31.3713 25.1981 32.4136 22.6412 32.4136 19.9785C32.4136 17.3157 31.3713 14.7588 29.5098 12.8549C27.6483 10.951 25.1155 9.85137 22.4535 9.79138C19.7914 9.85137 17.2586 10.951 15.3971 12.8549C13.5356 14.7588 12.4934 17.3157 12.4934 19.9785C12.4934 22.6412 13.5356 25.1981 15.3971 27.102C17.2586 29.0059 19.7914 30.1055 22.4535 30.1655ZM40.0397 32.6845C39.5287 32.8251 38.9827 32.757 38.522 32.4951C38.0612 32.2331 37.7234 31.7989 37.5828 31.2879C37.4422 30.7769 37.5103 30.231 37.7722 29.7703C38.0341 29.3095 38.4683 28.9716 38.9793 28.831C40.7783 28.3314 42.3825 27.2957 43.5783 25.8618C44.7741 24.4279 45.5049 22.6638 45.6734 20.8043C45.8418 18.9449 45.44 17.0782 44.5214 15.4527C43.6028 13.8272 42.2109 12.5201 40.531 11.7052C40.0635 11.4821 39.7009 11.086 39.52 10.6006C39.339 10.1151 39.3539 9.57834 39.5613 9.10364C39.7688 8.62893 40.1527 8.25345 40.6319 8.05653C41.111 7.8596 41.648 7.85664 42.1293 8.04828L42.2793 8.12069C44.6901 9.29089 46.6868 11.1682 48.0033 13.5022C49.3198 15.8363 49.8935 18.5162 49.648 21.1846C49.4024 23.8531 48.3493 26.3833 46.6289 28.4379C44.9086 30.4925 42.6028 31.9739 40.019 32.6845H40.0397Z" fill="#107869"/>
<path d="M45.3879 47.2034C45.3852 48.9512 44.6893 50.6265 43.453 51.8618C42.2167 53.0972 40.5408 53.7917 38.7931 53.7931H8.21379C6.52641 53.7917 4.90845 53.1212 3.71481 51.9285C2.52117 50.7358 1.84929 49.1184 1.84655 47.431C1.84655 47.2552 1.84655 47.0793 1.87241 46.9138C2.77241 36.2069 11.4414 30.1655 23.6276 30.1655C35.7103 30.1655 44.3172 36.0155 45.3517 46.5414C45.3517 46.7638 45.3827 46.981 45.3827 47.2034H45.3879ZM23.6276 33.7552C13.1379 33.7552 6.17586 38.6069 5.45689 47.2034C5.39531 47.936 5.62717 48.6629 6.10148 49.2245C6.57578 49.7861 7.25371 50.1364 7.9862 50.1983H38.7931C39.1877 50.1976 39.5784 50.1192 39.9427 49.9675C40.3071 49.8159 40.638 49.594 40.9166 49.3144C41.1951 49.0349 41.4159 48.7032 41.5663 48.3384C41.7167 47.9735 41.7938 47.5826 41.7931 47.1879C41.7982 47.0897 41.7982 46.9913 41.7931 46.8931C40.9293 38.4569 34.0345 33.7603 23.6276 33.7603V33.7552Z" fill="#107869"/>
<path d="M58.1534 45.6465C58.1672 45.9176 58.1258 46.1887 58.0315 46.4432C57.9373 46.6978 57.7923 46.9305 57.6053 47.1273C57.4183 47.324 57.1932 47.4807 56.9438 47.5877C56.6943 47.6948 56.4257 47.75 56.1543 47.75C55.8829 47.75 55.6143 47.6948 55.3648 47.5877C55.1154 47.4807 54.8904 47.324 54.7034 47.1273C54.5164 46.9305 54.3713 46.6978 54.2771 46.4432C54.1829 46.1887 54.1414 45.9176 54.1552 45.6465C54.1602 45.5552 54.1602 45.4637 54.1552 45.3724C53.4 37.8724 47.7724 33.4448 38.9172 32.7517C38.6557 32.731 38.4009 32.659 38.1672 32.5398C37.9335 32.4206 37.7256 32.2565 37.5553 32.0569C37.3851 31.8573 37.2558 31.6262 37.1748 31.3767C37.0939 31.1271 37.0629 30.8641 37.0836 30.6026C37.1043 30.3411 37.1764 30.0862 37.2956 29.8525C37.4148 29.6188 37.5789 29.4109 37.7784 29.2407C37.978 29.0704 38.2091 28.9411 38.4587 28.8602C38.7082 28.7792 38.9712 28.7482 39.2328 28.769C49.8414 29.6017 57.15 35.3431 58.1172 45C58.1172 45.2224 58.1534 45.4448 58.1534 45.6724V45.6465Z" fill="#107869"/>
</svg>
