<svg width="60" height="60" viewBox="0 0 60 60" fill="none" xmlns="http://www.w3.org/2000/svg">
<path d="M43.5234 7.11914C43.3887 7.13672 43.248 7.125 43.1133 7.125C40.8867 7.125 38.6602 7.11914 36.4336 7.13086C35.7891 7.13086 35.1504 7.21289 34.5352 7.42969C33.4453 7.81055 32.7891 8.57227 32.5195 9.67969C32.4199 10.0898 32.3789 10.5059 32.3789 10.9277C32.3789 14.8652 32.373 18.7969 32.3848 22.7344C32.3848 23.543 32.4375 24.3516 32.748 25.125C33.1523 26.127 33.9023 26.7188 34.9336 26.9824C35.3027 27.0762 35.6836 27.1113 36.0645 27.1113H48.8379C49.3242 27.1113 49.8105 27.0703 50.291 26.9766C51.7207 26.7129 52.6582 25.7637 52.9219 24.3398C52.9453 24.2109 52.8984 24.0352 53.0918 23.9766V10.3828C53.0684 10.3594 53.0625 10.3301 53.0625 10.2949C52.9746 10.0137 52.9629 9.7207 52.8691 9.43359C52.4531 8.20313 51.5977 7.47656 50.3613 7.16016C49.9863 7.06641 49.6113 7.01953 49.2188 7.03711C49.1426 7.04297 49.043 7.0957 48.9902 6.98438H43.7754C43.752 7.13672 43.6172 7.10742 43.5234 7.11914ZM49.3066 9.50391C49.541 9.50391 49.7813 9.55664 50.0039 9.62695C50.4082 9.75586 50.6309 10.0723 50.6309 10.5117C50.6309 14.8945 50.6367 19.2773 50.625 23.6602C50.625 24.3164 50.1211 24.7148 49.3887 24.7207C47.1504 24.7383 44.918 24.7266 42.6797 24.7266H36.0586C35.7949 24.7266 35.5547 24.6504 35.3145 24.5684C34.8164 24.3867 34.752 23.9531 34.7461 23.5195C34.7344 21.3223 34.7402 19.125 34.7402 16.9277V10.7461C34.7402 10.3652 34.8281 10.0137 35.1445 9.75C35.4141 9.52734 35.748 9.49805 36.0586 9.49805C40.4766 9.49219 44.8945 9.49805 49.3066 9.50391Z" fill="#107869"/>
<path d="M43.4766 7.03125C41.1621 7.03711 38.8477 7.03711 36.5391 7.03711C35.9883 7.03711 35.4492 7.0957 34.916 7.21875C34.2363 7.37695 33.6211 7.66992 33.1582 8.19727C32.5371 8.90625 32.291 9.77344 32.291 10.6934C32.2793 14.7715 32.2793 18.8555 32.291 22.9336C32.291 23.4668 32.332 24.0059 32.4551 24.5273C32.6191 25.2129 32.9004 25.8457 33.4336 26.3145C34.1191 26.918 34.9512 27.1934 35.8652 27.1934C40.207 27.1992 44.5547 27.1992 48.8965 27.1934C49.4414 27.1934 49.9922 27.1641 50.5195 27.0176C51.6328 26.7012 52.4883 26.0859 52.8633 24.9199C52.9629 24.6094 52.9688 24.2813 53.0859 23.9766C52.8984 24.0352 52.9395 24.2109 52.916 24.3398C52.6523 25.7695 51.7148 26.7129 50.2852 26.9766C49.8047 27.0645 49.3184 27.1113 48.832 27.1113H36.0586C35.6777 27.1113 35.2969 27.0762 34.9277 26.9824C33.9023 26.7188 33.1465 26.127 32.7422 25.125C32.4316 24.3574 32.3789 23.543 32.3789 22.7344C32.3672 18.7969 32.373 14.8652 32.373 10.9277C32.373 10.5059 32.4141 10.0898 32.5137 9.67969C32.7832 8.57227 33.4395 7.81055 34.5293 7.42969C35.1445 7.21289 35.7832 7.13672 36.4277 7.13086C38.6543 7.11914 40.8809 7.125 43.1074 7.125C43.2422 7.125 43.3828 7.13672 43.5176 7.11914C43.6172 7.10742 43.7461 7.13086 43.7637 6.97852C43.6934 7.10156 43.5762 7.03125 43.4766 7.03125ZM7.06641 24.041C7.18359 24.7734 7.38867 25.4707 7.9043 26.0332C8.57812 26.7773 9.45703 27.0879 10.4238 27.0938C14.8242 27.1113 19.2246 27.1113 23.6309 27.0938C24.1816 27.0938 24.7383 27.0352 25.2773 26.8652C26.7129 26.4141 27.5684 25.2656 27.5684 23.7539C27.5684 19.418 27.5684 15.0879 27.5742 10.752C27.5742 10.377 27.5273 10.0137 27.4336 9.65039C27.0938 8.33789 25.998 7.35938 24.6504 7.17188C24.4102 7.13672 24.1699 7.10742 23.9238 7.10742C23.8066 7.10742 23.6602 7.14258 23.6191 6.9668H18.4043C18.3281 7.08984 18.2109 7.01953 18.1172 7.01953C15.709 7.02539 13.3008 7.00781 10.8926 7.03125C10.0254 7.03711 9.18164 7.18359 8.41992 7.6582C7.6875 8.11523 7.25977 8.77734 7.03125 9.5918C6.98438 9.75 7.01953 9.92578 6.91992 10.0723V23.7246C7.08984 23.7773 7.04883 23.9297 7.06641 24.041ZM9.38086 10.5059C9.38086 10.0312 9.74414 9.65039 10.2305 9.55078C10.4883 9.49805 10.7461 9.49219 11.0039 9.49219H23.8359C24.0879 9.49219 24.3281 9.53906 24.5625 9.60938C25.002 9.75 25.1953 10.0137 25.1953 10.4648V23.6777C25.1953 24.1582 24.9727 24.457 24.5156 24.6094C24.2812 24.6855 24.041 24.7324 23.7891 24.7266C21.6094 24.7207 19.4355 24.7207 17.2559 24.7207C15.0469 24.7207 12.8438 24.7266 10.6348 24.7148C10.2656 24.7148 9.89648 24.6621 9.62109 24.3574C9.46289 24.1816 9.38086 23.9883 9.38086 23.7656C9.375 19.3535 9.375 14.9297 9.38086 10.5059Z" fill="#107869"/>
<path d="M6.97266 23.877C6.97852 24.3984 7.125 24.8906 7.34766 25.3477C7.95703 26.6016 9.04102 27.1641 10.3711 27.1758C14.7363 27.2109 19.1016 27.1875 23.4609 27.1875C24.0059 27.1875 24.5508 27.1406 25.084 27.0117C26.6719 26.6191 27.6387 25.4648 27.6504 23.8242C27.6797 19.5 27.6621 15.1758 27.6621 10.8516C27.6621 10.5645 27.6621 10.2773 27.6094 9.99023C27.4336 9.04102 26.9824 8.26758 26.1914 7.70508C25.5469 7.24805 24.8145 7.06055 24.0293 7.03711C23.8945 7.03125 23.7422 7.10742 23.625 6.98438C23.666 7.16016 23.8184 7.125 23.9297 7.125C24.1758 7.125 24.416 7.16016 24.6562 7.18945C26.0039 7.37695 27.0996 8.35547 27.4395 9.66797C27.5332 10.0313 27.5801 10.3945 27.5801 10.7695C27.5742 15.1055 27.5801 19.4355 27.5742 23.7715C27.5742 25.2773 26.7188 26.4258 25.2832 26.8828C24.7441 27.0527 24.1875 27.1113 23.6367 27.1113C19.2363 27.123 14.8359 27.1289 10.4297 27.1113C9.46289 27.1055 8.58984 26.7949 7.91016 26.0508C7.39453 25.4824 7.18945 24.791 7.07227 24.0586C7.05469 23.9473 7.0957 23.7891 6.91992 23.7539C6.99609 23.7598 6.97266 23.8301 6.97266 23.877ZM11.2383 51.7207C11.3613 51.7031 11.4902 51.7148 11.6191 51.7148H23.6895C24.1816 51.7148 24.6621 51.6563 25.1367 51.5332C26.6309 51.1465 27.5625 49.957 27.5684 48.416C27.5742 46.9336 27.5684 45.4453 27.5684 43.9629V35.291C27.5684 33.3984 26.3145 31.998 24.4277 31.793C23.7598 31.7227 23.0859 31.6934 22.4121 31.6758C20.3906 31.6348 18.3691 31.7051 16.3535 31.752C14.4199 31.7988 12.4863 31.7637 10.5586 31.793C9.88477 31.8047 9.23438 31.9512 8.64258 32.2676C7.8457 32.6895 7.35938 33.3516 7.13672 34.2246C7.0957 34.3887 7.13086 34.6055 6.91992 34.6934V48.4043C7.03711 48.7266 7.04883 49.0723 7.14844 49.4063C7.49414 50.6191 8.28516 51.3574 9.48047 51.6855C9.86133 51.791 10.2539 51.8203 10.6465 51.8086C10.7285 51.8086 10.8398 51.7441 10.9043 51.8613H11.0215C11.0332 51.7266 11.1445 51.7324 11.2383 51.7207ZM10.5703 49.3418C9.85547 49.3418 9.35742 48.9551 9.36328 48.1406C9.38672 43.8457 9.375 39.5508 9.36914 35.25C9.36914 34.5586 9.7793 34.1895 10.4414 34.166C14.8125 34.0254 19.1777 34.1367 23.5488 34.1191C23.9238 34.1191 24.334 34.0957 24.6973 34.2949C25.0137 34.4707 25.1953 34.7168 25.1953 35.0977C25.1895 37.2949 25.1953 39.4922 25.1953 41.6895C25.1953 43.8691 25.1836 46.043 25.2012 48.2227C25.207 48.9316 24.7441 49.2539 24.1055 49.3535C23.6016 49.4297 23.1094 49.3535 22.6113 49.3477C18.5977 49.3359 14.584 49.3418 10.5703 49.3418Z" fill="#107869"/>
<path d="M11.3379 51.8086C15.3105 51.8027 19.2891 51.8027 23.2617 51.8086C23.8125 51.8086 24.3574 51.7969 24.9023 51.6855C25.6348 51.5391 26.2969 51.2285 26.8066 50.6836C27.375 50.0742 27.6562 49.3125 27.6562 48.4805C27.668 44.1269 27.6621 39.7676 27.6621 35.4141C27.6621 35.0449 27.6387 34.6875 27.5449 34.3301C27.2344 33.1641 26.5312 32.3555 25.3945 31.9102C24.6152 31.6055 23.7949 31.6172 22.9922 31.5996C21.6387 31.5703 20.2852 31.5469 18.9316 31.6289C17.8184 31.6992 16.6934 31.6465 15.5742 31.6875C13.957 31.7402 12.334 31.7051 10.7109 31.6992C10.3359 31.6992 9.9668 31.7344 9.59766 31.8164C8.51953 32.0625 7.69336 32.625 7.21875 33.6504C7.06641 33.9844 7.05469 34.3535 6.91406 34.6875C7.13086 34.5996 7.08984 34.3828 7.13086 34.2187C7.35352 33.3457 7.8457 32.6836 8.63672 32.2617C9.23437 31.9453 9.87891 31.7988 10.5527 31.7871C12.4863 31.7578 14.4141 31.793 16.3477 31.7461C18.3691 31.6992 20.3848 31.6289 22.4062 31.6699C23.0801 31.6816 23.7539 31.7109 24.4219 31.7871C26.3086 31.9922 27.5566 33.3926 27.5625 35.2852V43.957C27.5625 45.4394 27.5684 46.9277 27.5625 48.4102C27.5508 49.957 26.625 51.1406 25.1309 51.5273C24.6562 51.6504 24.1758 51.709 23.6836 51.709H11.6133C11.4844 51.709 11.3613 51.7031 11.2324 51.7148C11.1387 51.7266 11.0273 51.7148 11.0156 51.8555C11.1035 51.7441 11.2324 51.8086 11.3379 51.8086Z" fill="#2C2C2C"/>
<path d="M8.41406 7.66992C9.17578 7.20117 10.0195 7.04883 10.8867 7.04297C13.2949 7.01953 15.7031 7.03711 18.1113 7.03125C18.2051 7.03125 18.3223 7.10156 18.3984 6.97852C18.2988 7.03711 18.1875 7.00781 18.082 7.00781C15.457 7.02539 12.832 6.96094 10.207 7.04297C9.09961 7.07812 8.16211 7.51758 7.48242 8.42578C7.11328 8.91797 6.94922 9.48047 6.91406 10.084C7.01953 9.94336 6.98438 9.76758 7.02539 9.60352C7.25977 8.78906 7.68164 8.12695 8.41406 7.66992ZM49.2188 7.03125C49.6055 7.01367 49.9863 7.06055 50.3613 7.1543C51.5918 7.4707 52.4531 8.19727 52.8691 9.42773C52.9629 9.70898 52.9746 10.0078 53.0625 10.2891V10.2656C53.0859 8.61914 51.6328 7.14844 49.9746 7.02539C49.6465 7.00195 49.3184 7.05469 48.9902 6.97266C49.0371 7.0957 49.1426 7.03711 49.2188 7.03125ZM10.6406 51.8086C10.248 51.8203 9.85547 51.791 9.47461 51.6855C8.2793 51.3574 7.48828 50.6191 7.14258 49.4062C7.04883 49.0723 7.03711 48.7266 6.91406 48.4043C6.97852 48.7148 6.96094 49.0371 7.03711 49.3477C7.35937 50.6836 8.53125 51.7266 9.88477 51.8086C10.2246 51.832 10.5645 51.7734 10.8984 51.8555C10.834 51.7441 10.7227 51.8027 10.6406 51.8086Z" fill="#2C2C2C"/>
<path d="M35.6484 39.0938C34.9277 39.1055 34.4531 39.5801 34.4531 40.2656V50.332C34.4531 51.0527 34.9512 51.5098 35.6719 51.4981C36.4277 51.4863 36.9023 51.0938 36.9082 50.3438C36.9199 46.9805 36.9141 43.6113 36.9082 40.2481C36.9082 39.5449 36.416 39.082 35.6484 39.0938ZM50.4727 39.1055C49.8926 39 49.1074 39.3926 49.1074 40.1719C49.0957 41.8828 49.1074 43.5879 49.1074 45.2988V50.3965C49.1074 50.4902 49.1016 50.5957 49.1309 50.6836C49.3242 51.2344 49.9746 51.6328 50.5078 51.5039C51.1758 51.3457 51.5566 51.082 51.5625 50.25C51.5742 46.9981 51.5684 43.7461 51.5684 40.4941C51.5625 39.6504 51.2988 39.2578 50.4727 39.1055ZM45.041 42.6152C44.8887 42.0645 44.2793 41.6309 43.7461 41.7305C43.0195 41.8711 42.6094 42.1172 42.6035 42.9551C42.5859 45.3633 42.5977 47.7773 42.5977 50.1856C42.5977 50.9941 42.9316 51.3574 43.623 51.4863C44.2734 51.6094 45.0527 51.2227 45.0586 50.3672V46.6465V42.8672C45.0586 42.791 45.0586 42.6973 45.041 42.6152ZM43.418 31.9219C42.9082 32.0332 42.5977 32.5195 42.5977 33.082V38.2617C42.5977 39.0293 42.832 39.4922 43.6582 39.6504C44.2617 39.7617 45.0645 39.3457 45.0586 38.5664C45.0527 37.6406 45.0586 36.7148 45.0586 35.7832C45.0586 34.8867 45.0469 33.9902 45.0586 33.0879C45.0762 31.9746 44.2031 31.752 43.418 31.9219ZM36.4453 32.0742C36.1582 31.875 35.8535 31.8809 35.543 31.8809C34.9277 31.8809 34.459 32.3438 34.459 32.9531V34.4766C34.459 35.0039 34.4531 35.5313 34.459 36.0586C34.4648 36.3281 34.5352 36.5684 34.7461 36.7793C35.0508 37.084 35.4023 37.1719 35.8125 37.1602C36.3926 37.1426 36.9141 36.6387 36.9141 36.0645C36.9199 35.0273 36.9258 33.9961 36.9082 32.959C36.9082 32.6016 36.7676 32.2969 36.4453 32.0742ZM51.4629 32.5723C51.334 32.209 50.8887 31.8809 50.4141 31.8691C49.5762 31.8398 49.0312 32.332 49.0957 33.2051C49.125 33.6152 49.1016 34.0254 49.1016 34.4355V35.9004C49.1016 35.9883 49.1016 36.0762 49.125 36.1582C49.3125 36.7617 49.8809 37.0664 50.5254 36.9785C51.1699 36.8848 51.5449 36.4863 51.5566 35.8242C51.5742 34.8984 51.5625 33.9668 51.5625 33.041C51.5625 32.8711 51.5156 32.7188 51.4629 32.5723ZM20.625 15.1055C20.5137 14.6777 20.1621 14.3613 19.7227 14.3027C19.6465 14.291 19.5645 14.2793 19.4883 14.2793C19.4531 14.2793 19.4004 14.291 19.3887 14.2324H17.7012C17.6777 14.2734 17.6367 14.25 17.6074 14.25C16.8281 14.25 16.0488 14.2441 15.2695 14.2559C14.9883 14.2559 14.7129 14.3086 14.4668 14.4609C14.2266 14.6074 14.0918 14.8242 14.0156 15.0879C14.0039 15.1406 14.0156 15.1992 13.9805 15.2402V19.6641C14.0391 19.6758 14.0215 19.7285 14.0273 19.7637C14.0684 20.0039 14.1328 20.2266 14.2969 20.4082C14.5137 20.6484 14.8008 20.748 15.1113 20.7539C16.5352 20.7598 17.9648 20.7598 19.3887 20.7539C19.5703 20.7539 19.7461 20.7363 19.9219 20.6777C20.3848 20.5313 20.666 20.1563 20.666 19.6699V15.457C20.6719 15.3398 20.6543 15.2227 20.625 15.1055ZM46.0254 14.6543C45.9141 14.2266 45.5625 13.9102 45.123 13.8516C45.0469 13.8398 44.9648 13.8281 44.8887 13.8281C44.8535 13.8281 44.8008 13.8398 44.7891 13.7812H43.1016C43.0781 13.8223 43.0371 13.7988 43.0078 13.7988C42.2285 13.7988 41.4492 13.793 40.6699 13.8047C40.3887 13.8047 40.1133 13.8574 39.8672 14.0098C39.627 14.1563 39.4922 14.373 39.416 14.6367C39.4043 14.6895 39.416 14.748 39.3809 14.7891V19.2129C39.4395 19.2246 39.4219 19.2773 39.4277 19.3125C39.4688 19.5527 39.5332 19.7754 39.6973 19.957C39.9141 20.1973 40.2012 20.2969 40.5117 20.3027C41.9355 20.3086 43.3652 20.3086 44.7891 20.3027C44.9707 20.3027 45.1465 20.2852 45.3223 20.2266C45.7852 20.0801 46.0664 19.7051 46.0664 19.2188V15.0059C46.0781 14.8887 46.0547 14.7656 46.0254 14.6543ZM20.5898 39.6445C20.4785 39.2168 20.127 38.9004 19.6875 38.8418C19.6113 38.8301 19.5293 38.8184 19.4531 38.8184C19.418 38.8184 19.3652 38.8301 19.3535 38.7715H17.666C17.6426 38.8125 17.6016 38.7891 17.5723 38.7891C16.793 38.7891 16.0137 38.7832 15.2344 38.7949C14.9531 38.7949 14.6777 38.8477 14.4316 39C14.1914 39.1465 14.0566 39.3633 13.9805 39.627C13.9688 39.6797 13.9805 39.7383 13.9453 39.7793V44.2031C14.0039 44.2148 13.9863 44.2676 13.9922 44.3027C14.0332 44.543 14.0977 44.7656 14.2617 44.9473C14.4785 45.1875 14.7656 45.2871 15.0762 45.293C16.5 45.2988 17.9297 45.2988 19.3535 45.293C19.5352 45.293 19.7109 45.2754 19.8867 45.2168C20.3496 45.0703 20.6309 44.6953 20.6309 44.209V39.9961C20.6367 39.8789 20.6191 39.7617 20.5898 39.6445Z" fill="#107869"/>
</svg>
