<svg width="60" height="60" viewBox="0 0 60 60" fill="none" xmlns="http://www.w3.org/2000/svg">
<path d="M37.91 37.74L35.4233 35.5167C36.7931 33.9916 37.5495 32.0133 37.5467 29.9633C37.5467 27.8967 36.7933 25.9533 35.4533 24.44L37.9467 22.2267C39.8233 24.3467 40.88 27.0733 40.88 29.96C40.88 32.87 39.81 35.6167 37.91 37.74ZM47.91 44.4633L45.4233 42.24C48.4474 38.8705 50.1169 34.5008 50.11 29.9733C50.1179 25.4772 48.4724 21.135 45.4867 17.7733L47.98 15.56C51.5076 19.5305 53.4531 24.6588 53.4467 29.97C53.4467 35.3933 51.45 40.5033 47.91 44.4633ZM6.66667 40.5567C6.4478 40.5567 6.23107 40.5136 6.02886 40.4298C5.82665 40.346 5.64292 40.2233 5.48816 40.0685C5.33339 39.9138 5.21063 39.73 5.12687 39.5278C5.04311 39.3256 5 39.1089 5 38.89V21.11C5 20.8911 5.04311 20.6744 5.12687 20.4722C5.21063 20.27 5.33339 20.0863 5.48816 19.9315C5.64292 19.7767 5.82665 19.654 6.02886 19.5702C6.23107 19.4864 6.4478 19.4433 6.66667 19.4433H13.2333L29.06 8.62334C29.3104 8.45229 29.6028 8.35281 29.9056 8.33564C30.2084 8.31846 30.5102 8.38424 30.7783 8.52587C31.0465 8.66751 31.271 8.87963 31.4275 9.1394C31.584 9.39916 31.6667 9.69672 31.6667 10V50C31.6664 50.3038 31.583 50.6017 31.4257 50.8616C31.2683 51.1215 31.0429 51.3334 30.7738 51.4744C30.5048 51.6155 30.2023 51.6803 29.899 51.6619C29.5958 51.6435 29.3034 51.5426 29.0533 51.37L13.3967 40.5567H6.66667ZM8.33333 37.2233H13.9167C14.2547 37.2229 14.5848 37.3252 14.8633 37.5167L28.3333 46.8233V13.1567L14.69 22.49C14.4126 22.6779 14.085 22.7778 13.75 22.7767H8.33333V37.2233Z" fill="#FF262B"/>
<rect x="0.5" y="0.5" width="59" height="59" stroke="white"/>
</svg>
